<svg width="427" height="626" viewBox="0 0 427 626" fill="none" xmlns="http://www.w3.org/2000/svg">
<path d="M0 0.591828V3.70684C0 3.86323 0 3.94143 0.00060463 4.0192C0.0159559 5.99301 0.323417 7.95367 0.912989 9.83743C0.936219 9.91166 0.960155 9.9861 1.00803 10.135L13.1237 47.8155C13.2695 48.269 13.3438 48.7425 13.3438 49.2188C13.3438 50.928 14.2945 52.4952 15.8103 53.2847L57.5 74.9999L40.755 68.2069C34.0326 65.4797 26.6875 70.4265 26.6875 77.681C26.6875 88.8652 42.0688 91.9295 46.355 81.5993L50.1013 72.5705C54.5898 61.7526 42.7053 51.4581 32.6384 57.444L21.7064 63.9443C9.57549 71.1575 11.6227 89.3085 25.0556 93.6383L63.781 106.121C68.2132 107.549 73.0722 106.379 76.3681 103.089L88.7285 90.7511C92.614 86.8727 89.5911 80.2524 84.1155 80.6482C76.8994 81.1699 75.2211 70.7693 82.235 68.9947L90.9086 66.8002C95.3684 65.6718 99.616 69.262 99.2462 73.8475L98.5189 82.8651C97.9498 89.9227 103.055 96.1704 110.085 97.0188L119.659 98.1743C123.297 98.6133 126.5 95.7734 126.5 92.1091C126.5 88.7351 123.765 85.9999 120.391 85.9999H118.432C109.652 85.9999 107.189 73.9602 115.262 70.5117L143.608 58.4048C154.673 53.6788 166.301 63.8261 163.117 75.4291L162 79.4999L160.477 89.4023C159.741 94.1855 163.824 98.3255 168.617 97.6554L189.393 94.7507C192.305 94.3436 192.601 90.2516 189.778 89.4295C186.977 88.6139 187.239 84.5628 190.122 84.1144L198.029 82.8844C199.566 82.6452 200.871 81.6305 201.482 80.1997L205.677 70.3708C209.562 61.27 199.539 52.5109 191.04 57.5796C182.487 62.681 185.536 75.756 195.464 76.5474L222.102 78.671C228.437 79.176 234.485 75.9403 237.581 70.3897C242.497 61.5747 254.177 59.3291 262.011 65.6926L273.521 75.0416C282.132 82.036 278.493 95.9166 267.558 97.7868C256.704 99.6431 248.658 87.9319 254.284 78.4664L269.581 52.7284C270.81 50.6605 272.807 49.1626 275.137 48.5615L286.532 45.6208C291.531 44.3307 291.943 37.3908 287.132 35.5181C283.421 34.0738 279.498 37.0708 279.916 41.0307L281.58 56.8048C282.455 65.0944 291.807 69.5043 298.759 64.9053L312.959 55.5118C314.262 54.6499 316 55.5842 316 57.1463C316 59.4883 319.365 59.8577 319.873 57.5715L323.251 42.3682C324.126 38.4346 318.811 36.3147 316.738 39.77C314.783 43.0291 318.621 46.6682 321.771 44.5418L336.415 34.6575C341.356 31.3224 347.975 35.1037 347.613 41.0537C347.166 48.3713 356.675 51.5843 360.759 45.4959L367.549 35.3717C369.592 32.3269 374.32 33.4682 374.748 37.1093L375.462 43.179C375.848 46.455 380.517 46.6838 381.221 43.4612C381.968 40.0423 387 40.593 387 44.0925C387 46.9632 390.705 48.1179 392.333 45.7532L407 24.4472C413.105 15.579 427 19.8994 427 30.6658V605C427 605.928 427 606.393 426.985 606.785C426.575 617.214 418.214 625.575 407.785 625.984C407.393 626 406.928 626 406 626H21C20.0715 626 19.6073 626 19.2148 625.984C8.78572 625.575 0.425179 617.214 0.015419 606.785C0 606.393 0 605.928 0 605V0.591828Z" fill="url(#paint0_linear_1_29)" style="mix-blend-mode:plus-darker"/>
<defs>
<linearGradient id="paint0_linear_1_29" x1="213.5" y1="-15.0001" x2="213.5" y2="626" gradientUnits="userSpaceOnUse">
<stop stop-color="#E38F42"/>
<stop offset="0.0850421" stop-color="#E38F42" stop-opacity="0.95"/>
<stop offset="0.160042" stop-color="#E38F42" stop-opacity="0.9"/>
<stop offset="0.225042" stop-color="#E38F42" stop-opacity="0.85"/>
<stop offset="0.300042" stop-color="#E38F42" stop-opacity="0.8"/>
<stop offset="0.340042" stop-color="#E38F42" stop-opacity="0.75"/>
<stop offset="0.405042" stop-color="#B7867A"/>
<stop offset="0.475042" stop-color="#8D506B" stop-opacity="0.75"/>
<stop offset="0.510042" stop-color="#623180" stop-opacity="0.725"/>
<stop offset="0.545042" stop-color="#371194" stop-opacity="0.7"/>
<stop offset="0.605042" stop-color="#242183" stop-opacity="0.838462"/>
<stop offset="0.675042" stop-color="#0F3570"/>
<stop offset="0.760042" stop-color="#0C2C5D"/>
<stop offset="0.800042" stop-color="#0B2754"/>
<stop offset="0.875042" stop-color="#091F42"/>
<stop offset="1" stop-color="#051124"/>
</linearGradient>
</defs>
</svg>
