<svg width="428" height="809" viewBox="0 0 428 809" fill="none" xmlns="http://www.w3.org/2000/svg">
<path d="M0.510882 0.717032V6.42302C0.510882 6.54548 0.510882 6.60671 0.511255 6.66774C0.5207 8.21545 0.709771 9.75684 1.07467 11.2609C1.08906 11.3203 1.10386 11.3797 1.13345 11.4985L13.6653 61.8123C13.8012 62.358 13.8699 62.9182 13.8699 63.4806C13.8699 65.7789 15.0138 67.9265 16.921 69.2089L58.0767 96.8827L42.8939 88.9314C35.7691 85.2001 27.229 90.3681 27.229 98.4107C27.229 110.616 44.3821 113.305 48.1168 101.685L52.1981 88.9872C56.0362 77.0459 42.1813 67.289 32.2317 74.9264L16.842 86.7395C5.34479 95.5647 7.69587 113.523 21.0774 119.091L60.7148 135.585C67.1361 138.257 74.5513 136.298 78.8152 130.803L90.1329 116.219C94.1128 111.091 90.0487 103.686 83.585 104.289C74.779 105.111 72.1861 92.6013 80.5933 89.8553L88.8761 87.15C94.5102 85.3098 100.224 89.7331 99.8548 95.6485L98.9258 110.519C98.4707 117.804 103.64 124.237 110.852 125.36L118.213 126.507C122.912 127.239 127.156 123.605 127.156 118.849C127.156 114.569 123.686 111.099 119.406 111.099H117.42C107.358 111.099 103.908 97.697 112.72 92.8385L138.522 78.6116C151.515 71.448 166.912 82.8687 163.827 97.3806L162.696 102.699L161.099 116.104C160.4 121.969 165.571 126.84 171.384 125.791L189.874 122.453C193.477 121.803 193.929 116.818 190.502 115.53C187.11 114.255 187.508 109.333 191.061 108.62L198.026 107.221C200.013 106.822 201.634 105.387 202.27 103.463L206.546 90.5289C210.239 79.3589 197.253 70.1468 187.931 77.3242C179.383 83.9059 183.26 97.551 193.991 98.6555L221.377 101.474C228.46 102.203 235.198 98.2533 238.021 91.7168C242.656 80.9895 256.735 78.4718 264.8 86.9282L278.029 100.8C286.124 109.287 281.833 123.361 270.381 125.89C258.231 128.572 248.257 116.196 253.461 104.894L270.236 68.4576C271.567 65.5666 274.035 63.3556 277.055 62.3496L288.995 58.3718C294.303 56.6033 294.83 49.3023 289.83 46.7902C285.447 44.5877 280.343 48.0305 280.742 52.9197L282.683 76.6656C283.373 85.0997 293.326 89.2052 299.761 83.7097L313.569 71.9173C314.869 70.8071 316.873 71.7309 316.873 73.4404C316.873 75.8926 320.434 76.1968 320.85 73.7802L324.189 54.3804C324.919 50.1401 319.03 48.3004 317.216 52.2022L316.88 52.925C315.155 56.6367 319.723 60.0698 322.809 57.3809L336.096 45.8028C341.1 41.4421 348.89 45.2109 348.577 51.8412L348.518 53.0824C348.139 61.1086 358.945 64.0202 362.65 56.8901L368.188 46.2312C370.017 42.7108 375.309 43.7513 375.669 47.7022L376.412 55.8514C376.721 59.2445 381.609 59.432 382.177 56.0726C382.772 52.556 387.954 52.9913 387.954 56.5578V57.2321C387.954 60.3195 392.084 61.3518 393.537 58.6275L407.977 31.548C413.188 21.7767 428 25.4793 428 36.5531V788C428 788.929 428 789.393 427.985 789.785C427.575 800.214 419.214 808.575 408.785 808.985C408.393 809 407.928 809 407 809H21.5109C20.5824 809 20.1181 809 19.7257 808.985C9.2966 808.575 0.936062 800.214 0.526301 789.785C0.510882 789.393 0.510882 788.929 0.510882 788V0.717032Z" fill="url(#paint0_linear_21_44)" style="mix-blend-mode:plus-darker"/>
<defs>
<linearGradient id="paint0_linear_21_44" x1="214.255" y1="-19.4341" x2="214.255" y2="809" gradientUnits="userSpaceOnUse">
<stop stop-color="#E38F42"/>
<stop offset="0.0850421" stop-color="#E38F42" stop-opacity="0.95"/>
<stop offset="0.160042" stop-color="#E38F42" stop-opacity="0.9"/>
<stop offset="0.225042" stop-color="#E38F42" stop-opacity="0.85"/>
<stop offset="0.300042" stop-color="#E38F42" stop-opacity="0.8"/>
<stop offset="0.340042" stop-color="#E38F42" stop-opacity="0.75"/>
<stop offset="0.405042" stop-color="#B7867A"/>
<stop offset="0.475042" stop-color="#8D506B" stop-opacity="0.75"/>
<stop offset="0.510042" stop-color="#623180" stop-opacity="0.725"/>
<stop offset="0.545042" stop-color="#371194" stop-opacity="0.7"/>
<stop offset="0.605042" stop-color="#242183" stop-opacity="0.838462"/>
<stop offset="0.675042" stop-color="#0F3570"/>
<stop offset="0.760042" stop-color="#0C2C5D"/>
<stop offset="0.800042" stop-color="#0B2754"/>
<stop offset="0.875042" stop-color="#091F42"/>
<stop offset="0.997586" stop-color="#051124"/>
</linearGradient>
</defs>
</svg>
